<svg xmlns="http://www.w3.org/2000/svg" viewBox="0 0 24 24" width="80" height="80"><defs><linearGradient id="g" x1="0" y1="0" x2="1" y2="1"><stop offset="0%" stop-color="#7566FF"/><stop offset="100%" stop-color="#2F54EB"/></linearGradient></defs><rect x="1.5" y="1.5" width="21" height="21" rx="5.5" fill="url(#g)"/><g transform="translate(12 12) scale(0.56) translate(-12 -12)" stroke="#ffffff" stroke-width="2" fill="none" stroke-linecap="round" stroke-linejoin="round"><path d="M13.997 4a2 2 0 0 1 1.76 1.05l.486.9A2 2 0 0 0 18.003 7H20a2 2 0 0 1 2 2v9a2 2 0 0 1-2 2H4a2 2 0 0 1-2-2V9a2 2 0 0 1 2-2h1.997a2 2 0 0 0 1.759-1.048l.489-.904A2 2 0 0 1 10.004 4z" /> <circle cx="12" cy="13" r="3" /></g></svg>