<svg xmlns="http://www.w3.org/2000/svg" viewBox="0 0 24 24" width="80" height="80"><defs><linearGradient id="g" x1="0" y1="0" x2="1" y2="1"><stop offset="0%" stop-color="#7566FF"/><stop offset="100%" stop-color="#2F54EB"/></linearGradient></defs><rect x="1.5" y="1.5" width="21" height="21" rx="5.5" fill="url(#g)"/><g transform="translate(12 12) scale(0.56) translate(-12 -12)" stroke="#ffffff" stroke-width="2" fill="none" stroke-linecap="round" stroke-linejoin="round"><path d="m6 14 1.5-2.9A2 2 0 0 1 9.24 10H20a2 2 0 0 1 1.94 2.5l-1.54 6a2 2 0 0 1-1.95 1.5H4a2 2 0 0 1-2-2V5a2 2 0 0 1 2-2h3.9a2 2 0 0 1 1.69.9l.81 1.2a2 2 0 0 0 1.67.9H18a2 2 0 0 1 2 2v2" /></g></svg>